PathFileType	4	(X/Y/Z)	c:/Users/goper/Files/vsCode/490R/osim_files/A06/A06_Slow_06.trc
DataRate	CameraRate	NumFrames	NumMarkers	Units                	OrigDataRate	OrigDataStartFrame	OrigNumFrames
120.00	120.00	7	36	mm	120.0	1052	1202
                Frame#	Time	LPSIS			LASIS			LTH1			LTH2			LTH3			LTH4			LLFE			LMFE			LSH1			LSH2			LSH3			LSH4			LLMAL			LMMAL			LCAL			LMTP5			LTOE			LMTP1			RPSIS			RASIS			RTH1			RTH2			RTH3			RTH4			RLFE			RMFE			RSH1			RSH2			RSH3			RSH4			RLMAL			RMMAL			RCAL			RMTP1			RTOE			RMTP5		
		X1	Y1	Z1	X2	Y2	Z2	X3	Y3	Z3	X4	Y4	Z4	X5	Y5	Z5	X6	Y6	Z6	X7	Y7	Z7	X8	Y8	Z8	X9	Y9	Z9	X10	Y10	Z10	X11	Y11	Z11	X12	Y12	Z12	X13	Y13	Z13	X14	Y14	Z14	X15	Y15	Z15	X16	Y16	Z16	X17	Y17	Z17	X18	Y18	Z18	X19	Y19	Z19	X20	Y20	Z20	X21	Y21	Z21	X22	Y22	Z22	X23	Y23	Z23	X24	Y24	Z24	X25	Y25	Z25	X26	Y26	Z26	X27	Y27	Z27	X28	Y28	Z28	X29	Y29	Z29	X30	Y30	Z30	X31	Y31	Z31	X32	Y32	Z32	X33	Y33	Z33	X34	Y34	Z34	X35	Y35	Z35	X36	Y36	Z36

1052	8.75833	0.00000	0.00000	0.00000	0.00000	0.00000	0.00000	0.00000	0.00000	0.00000	-4634.84814	544.47455	371.63815	-4695.05176	576.76740	360.15463	-4683.31982	535.29742	355.65771	-4639.34521	466.95145	348.20575	0.00000	0.00000	0.00000	-4563.12402	386.34793	364.12646	-4559.22705	339.62601	367.20844	-4622.17188	373.19275	352.12405	-4612.12793	332.77536	354.53281	-4434.89307	91.79440	265.53897	-4426.67529	0.29234	222.99098	-4461.64258	40.87303	313.32181	0.00000	0.00000	0.00000	-4608.98633	51.41902	330.95657	0.00000	0.00000	0.00000	0.00000	0.00000	0.00000	-4738.83691	988.01904	103.92479	0.00000	0.00000	0.00000	0.00000	0.00000	0.00000	-4804.37598	623.94580	69.57061	-4817.08252	586.05103	65.41808	0.00000	0.00000	0.00000	-4802.98047	431.99878	133.70901	0.00000	0.00000	0.00000	0.00000	0.00000	0.00000	-4916.91455	333.44193	110.54307	0.00000	0.00000	0.00000	0.00000	0.00000	0.00000	-4634.16943	587.24957	377.97198	0.00000	0.00000	0.00000	0.00000	0.00000	0.00000	-4634.67139	464.52121	237.79341	0.00000	0.00000	0.00000
1053	8.76667	-4638.67725	465.93326	237.54274	0.00000	0.00000	0.00000	0.00000	0.00000	0.00000	0.00000	0.00000	0.00000	-4700.02490	575.80176	359.63968	-4687.90576	534.38959	355.07471	-4642.94189	466.42584	347.96884	0.00000	0.00000	0.00000	-4565.75293	386.54419	363.84525	-4561.48486	339.90384	366.97791	-4624.74561	372.85001	351.92889	-4614.30859	332.49826	354.36972	-4435.14209	92.29523	265.59283	-4427.03320	0.60694	223.00352	-4462.01074	41.22247	313.34570	0.00000	0.00000	0.00000	-4609.25244	49.58652	329.10953	0.00000	0.00000	0.00000	0.00000	0.00000	0.00000	-4745.57227	986.61469	103.39397	0.00000	0.00000	0.00000	0.00000	0.00000	0.00000	-4811.78076	626.77100	69.94266	-4826.87061	586.15039	64.63406	0.00000	0.00000	0.00000	-4814.14941	432.09186	133.29512	0.00000	0.00000	0.00000	0.00000	0.00000	0.00000	-4929.19385	334.51059	110.33379	0.00000	0.00000	0.00000	0.00000	0.00000	0.00000	-4639.25391	586.63934	377.75769	0.00000	0.00000	0.00000	0.00000	0.00000	0.00000	0.00000	0.00000	0.00000	-4767.04492	166.68500	280.33646
1054	8.77500	0.00000	0.00000	0.00000	0.00000	0.00000	0.00000	0.00000	0.00000	0.00000	0.00000	0.00000	0.00000	-4705.00049	574.82074	359.17645	-4692.51318	533.54883	354.53964	-4646.67090	465.95053	347.72015	0.00000	0.00000	0.00000	-4568.47656	386.76038	363.51230	-4563.75537	340.13626	366.68597	-4627.33301	372.50113	351.71826	-4616.59521	332.29446	354.24707	-4435.48828	92.93861	265.60056	-4427.43945	0.99182	223.02431	-4462.49023	41.70608	313.34094	0.00000	0.00000	0.00000	-4609.33936	49.50320	329.12750	0.00000	0.00000	0.00000	0.00000	0.00000	0.00000	-4752.32617	985.25922	102.76121	0.00000	0.00000	0.00000	0.00000	0.00000	0.00000	-4820.95557	626.17072	69.61514	0.00000	0.00000	0.00000	0.00000	0.00000	0.00000	-4825.08691	431.97638	132.99202	-4652.07129	468.46625	237.01131	0.00000	0.00000	0.00000	0.00000	0.00000	0.00000	0.00000	0.00000	0.00000	0.00000	0.00000	0.00000	-4644.63086	586.15857	377.65778	0.00000	0.00000	0.00000	0.00000	0.00000	0.00000	-4945.04053	347.40271	99.28245	0.00000	0.00000	0.00000
1055	8.78333	-4956.74170	347.21442	99.46253	0.00000	0.00000	0.00000	0.00000	0.00000	0.00000	0.00000	0.00000	0.00000	-4709.97656	573.81665	358.78906	-4697.13379	532.67743	354.13330	-4650.41504	465.43954	347.49384	0.00000	0.00000	0.00000	-4571.34229	387.01566	363.17545	-4566.23047	340.49002	366.47946	-4630.05859	372.12723	351.51642	-4618.96533	332.08441	354.09833	-4435.85645	93.67197	265.70087	-4427.84912	1.39417	223.00638	-4462.98535	42.22606	313.34866	0.00000	0.00000	0.00000	-4609.41895	49.44797	329.13626	0.00000	0.00000	0.00000	0.00000	0.00000	0.00000	-4759.22168	983.95453	102.10652	0.00000	0.00000	0.00000	0.00000	0.00000	0.00000	-4830.10254	625.43958	69.36520	0.00000	0.00000	0.00000	0.00000	0.00000	0.00000	-4835.74512	431.64777	132.82394	0.00000	0.00000	0.00000	-4568.17920	-22.41782	331.04807	0.00000	0.00000	0.00000	0.00000	0.00000	0.00000	0.00000	0.00000	0.00000	-4649.88086	585.53656	377.49231	0.00000	0.00000	0.00000	0.00000	0.00000	0.00000	0.00000	0.00000	0.00000	0.00000	0.00000	0.00000
1056	8.79167	0.00000	0.00000	0.00000	0.00000	0.00000	0.00000	0.00000	0.00000	0.00000	0.00000	0.00000	0.00000	-4714.87744	572.79132	358.48672	-4701.68311	531.77631	353.78671	-4654.36133	464.99872	347.32047	0.00000	0.00000	0.00000	-4574.40137	387.26172	362.87683	-4568.88623	340.83139	366.29236	-4632.99512	371.79373	351.31555	-4621.47217	331.84500	353.92288	-4436.28418	94.54060	265.75253	-4428.38770	1.93972	223.01581	-4463.56641	42.85314	313.36902	0.00000	0.00000	0.00000	-4609.52734	49.36484	329.17847	0.00000	0.00000	0.00000	0.00000	0.00000	0.00000	-4766.20654	982.62396	101.39596	0.00000	0.00000	0.00000	0.00000	0.00000	0.00000	-4839.16064	624.53632	69.26839	0.00000	0.00000	0.00000	0.00000	0.00000	0.00000	-4846.11182	431.11996	132.78564	0.00000	0.00000	0.00000	-4568.38672	-22.41919	331.10187	0.00000	0.00000	0.00000	0.00000	0.00000	0.00000	0.00000	0.00000	0.00000	-4655.21582	585.00024	377.27972	0.00000	0.00000	0.00000	0.00000	0.00000	0.00000	-4968.18408	346.92599	99.62572	0.00000	0.00000	0.00000
1057	8.80000	-4979.25146	346.41928	99.80436	0.00000	0.00000	0.00000	0.00000	0.00000	0.00000	0.00000	0.00000	0.00000	-4719.87256	571.80737	358.33502	-4706.34912	530.91211	353.65677	-4658.31738	464.45712	347.17053	0.00000	0.00000	0.00000	-4577.67480	387.47699	362.61407	-4571.66016	341.08597	366.03967	-4636.17041	371.47754	351.16946	-4624.23242	331.59875	353.77777	-4436.79297	95.58087	265.76129	-4429.01172	2.57217	223.03201	-4464.15771	43.50800	313.37540	0.00000	0.00000	0.00000	-4609.65527	49.26086	329.22330	0.00000	0.00000	0.00000	0.00000	0.00000	0.00000	-4773.38086	981.18494	100.66116	0.00000	0.00000	0.00000	0.00000	0.00000	0.00000	-4848.16211	623.48474	69.19026	0.00000	0.00000	0.00000	0.00000	0.00000	0.00000	-4856.12207	430.31891	132.80412	0.00000	0.00000	0.00000	-4568.61279	-22.44822	331.13504	0.00000	0.00000	0.00000	0.00000	0.00000	0.00000	0.00000	0.00000	0.00000	-4660.45947	584.49158	376.95404	0.00000	0.00000	0.00000	0.00000	0.00000	0.00000	0.00000	0.00000	0.00000	0.00000	0.00000	0.00000
1058	8.80833	0.00000	0.00000	0.00000	0.00000	0.00000	0.00000	0.00000	0.00000	0.00000	0.00000	0.00000	0.00000	-4724.91211	570.75977	358.25372	-4711.05322	529.99738	353.60098	-4662.54004	463.93484	347.12625	0.00000	0.00000	0.00000	-4581.14111	387.64850	362.44684	-4574.70898	341.35971	365.90500	-4639.44922	370.96533	350.99594	-4627.11279	331.25143	353.64578	-4437.36279	96.70869	265.81528	-4429.61572	3.17638	223.03415	-4464.82666	44.23786	313.41727	0.00000	0.00000	0.00000	-4608.80664	48.32022	328.45389	0.00000	0.00000	0.00000	0.00000	0.00000	0.00000	-4780.78320	979.70117	99.94392	0.00000	0.00000	0.00000	0.00000	0.00000	0.00000	-4857.08936	622.29211	69.27943	0.00000	0.00000	0.00000	0.00000	0.00000	0.00000	-4865.83545	429.33597	132.99426	0.00000	0.00000	0.00000	-4568.91162	-22.45047	331.18234	0.00000	0.00000	0.00000	0.00000	0.00000	0.00000	0.00000	0.00000	0.00000	-4665.79297	583.95654	376.65033	0.00000	0.00000	0.00000	0.00000	0.00000	0.00000	-4989.92139	345.68512	100.00129	0.00000	0.00000	0.00000
